<svg xmlns="http://www.w3.org/2000/svg" viewBox="0 0 100 100" width="100" height="100">
  <!-- Hand shape -->
  <path d="M50,90 C40,90 35,80 35,70 L35,40 C35,37 37,35 40,35 C43,35 45,37 45,40 L45,60 M55,90 C65,90 70,80 70,70 L70,30 C70,27 68,25 65,25 C62,25 60,27 60,30 L60,60 M45,60 L45,30 C45,27 47,25 50,25 C53,25 55,27 55,30 L55,60 M60,60 L60,35 C60,32 62,30 65,30 C68,30 70,32 70,35 L70,60" 
        fill="none" stroke="#333" stroke-width="5" stroke-linecap="round" stroke-linejoin="round"/>
  <!-- Fingers -->
  <path d="M35,40 L35,35 C35,32 37,30 40,30 C43,30 45,32 45,35 L45,40" 
        fill="none" stroke="#333" stroke-width="5" stroke-linecap="round" stroke-linejoin="round"/>
</svg>